#!OML:ASF E:\emotionWalksFemale\Project 1\Capture day 1\Session 1\Female1.ASF
:FULLY-SPECIFIED
:DEGREES
2388
root 9.27393 15.3107 12.9839 0.0917085 0.810025 -4.54467
lowerback 8.81777 0.92186 2.60257
upperback 2.71246 1.48131 1.18123
thorax -2.09623 0.734996 -0.396886
lowerneck -6.31996 -2.38641 -5.22924
upperneck 47.9302 -3.31514 2.21294
head 19.9853 -1.9704 1.52211
rclavicle -9.01985e-015 -2.37548e-014
rhumerus -35.6762 5.82478 -87.2976
rradius 30.1821
rwrist 17.0662
rhand -7.75058 -48.8877
rfingers 7.12502
rthumb 18.1488 -78.061
lclavicle -9.01985e-015 -2.37548e-014
lhumerus -34.3968 12.9594 79.8644
lradius 33.6125
lwrist -15.7158
lhand -1.25676 -28.8262
lfingers 7.12502
lthumb 24.3861 -0.357994
rfemur 8.87978 11.449 37.7053
rtibia 12.0959
rfoot -14.6146 -18.6969
rtoes 5.84434
lfemur -34.3715 -24.0104 -9.25794
ltibia 31.7629
lfoot -24.0902 18.9906
ltoes -14.8557
2389
root 9.28721 15.3069 13.0516 0.153858 0.625792 -4.64553
lowerback 8.77042 0.916552 2.66198
upperback 2.70302 1.4784 1.20532
thorax -2.07896 0.73356 -0.404202
lowerneck -6.44934 -2.35184 -5.2662
upperneck 47.9832 -3.23439 2.18014
head 20.0572 -1.95126 1.52533
rclavicle -5.46658e-016 2.78299e-015
rhumerus -35.637 5.97292 -87.3989
rradius 30.2148
rwrist 17.1055
rhand -7.74714 -48.927
rfingers 7.12502
rthumb 18.1521 -78.1
lclavicle -5.46658e-016 2.78299e-015
lhumerus -34.3411 13.0965 79.7727
lradius 33.515
lwrist -15.6807
lhand -1.53031 -29.1062
lfingers 7.12502
lthumb 24.1238 -0.602952
rfemur 9.16784 11.2584 37.7713
rtibia 11.9268
rfoot -14.1716 -18.4125
rtoes 5.74743
lfemur -34.6938 -25.3044 -8.47325
ltibia 31.4801
lfoot -25.1352 19.7919
ltoes -12.4334
2390
root 9.29711 15.3049 13.1273 0.184428 0.413276 -4.70105
lowerback 8.69609 0.952305 2.61319
upperback 2.64166 1.52102 1.22767
thorax -2.10223 0.754017 -0.357394
lowerneck -6.32838 -2.33212 -5.33573
upperneck 47.9741 -3.19726 2.18511
head 20.015 -1.95115 1.54735
rclavicle 1.89094e-014 -3.47873e-015
rhumerus -35.7065 5.79966 -87.3557
rradius 30.2164
rwrist 17.5463
rhand -7.42234 -48.8525
rfingers 7.12502
rthumb 18.4646 -77.9962
lclavicle 1.89094e-014 -3.47873e-015
lhumerus -34.4256 13.1581 79.7164
lradius 33.557
lwrist -15.6539
lhand -1.38371 -28.9685
lfingers 7.12502
lthumb 24.2644 -0.483943
rfemur 9.47411 11.0245 37.7926
rtibia 11.8648
rfoot -13.9888 -18.1272
rtoes 6.09091
lfemur -34.9311 -26.5308 -7.78244
ltibia 31.2485
lfoot -26.039 20.5998
ltoes -9.66575
2391
root 9.30391 15.302 13.2052 0.183112 0.155502 -4.76204
lowerback 8.54543 0.978728 2.4882
upperback 2.66505 1.54055 1.27275
thorax -1.999 0.764979 -0.239467
lowerneck -6.31679 -2.28987 -5.37282
upperneck 48.0161 -3.09493 2.11466
head 20.0347 -1.92925 1.536
rclavicle -2.32081e-014 -1.88845e-015
rhumerus -35.5704 5.83446 -87.3426
rradius 30.1261
rwrist 18.0865
rhand -6.79186 -49.1894
rfingers 7.12502
rthumb 19.071 -78.2744
lclavicle -2.32081e-014 -1.88845e-015
lhumerus -34.5032 13.2458 79.6215
lradius 33.691
lwrist -15.6094
lhand -1.09394 -28.7319
lfingers 7.12502
lthumb 24.5422 -0.28471
rfemur 9.79407 11.0375 37.8992
rtibia 11.8749
rfoot -13.8951 -17.9543
rtoes 6.8874
lfemur -35.054 -27.4967 -7.20305
ltibia 31.06
lfoot -26.6703 21.3565
ltoes -6.93733
2392
root 9.31272 15.2964 13.278 0.264742 -0.0956073 -4.93752
lowerback 8.54591 0.987358 2.48679
upperback 2.59706 1.55526 1.33936
thorax -2.07115 0.770902 -0.172303
lowerneck -6.47134 -2.22279 -5.19142
upperneck 48.1704 -2.90652 1.83271
head 20.1671 -1.85978 1.39175
rclavicle 5.46658e-016 1.28216e-014
rhumerus -35.5574 6.33749 -87.5688
rradius 30.105
rwrist 17.7102
rhand -6.93084 -49.3446
rfingers 7.12502
rthumb 18.9373 -78.4427
lclavicle 5.46658e-016 1.28216e-014
lhumerus -34.6573 13.3051 79.5022
lradius 33.7731
lwrist -15.3646
lhand -1.04086 -28.657
lfingers 7.12502
lthumb 24.593 -0.216751
rfemur 9.94429 11.0643 38.0882
rtibia 11.9608
rfoot -13.8098 -17.7315
rtoes 7.62964
lfemur -35.2238 -27.9869 -6.63849
ltibia 30.91
lfoot -27.2877 22.0057
ltoes -5.02353
2393
root 9.32763 15.2907 13.3468 0.355581 -0.285574 -5.05867
lowerback 8.6146 1.00722 2.5864
upperback 2.47731 1.59536 1.32892
thorax -2.22903 0.788171 -0.245845
lowerneck -6.41133 -2.16233 -5.13108
upperneck 48.228 -2.84724 1.86305
head 20.1862 -1.82487 1.40718
rclavicle -2.41523e-014 -1.19271e-014
rhumerus -35.7276 6.50849 -87.727
rradius 30.2454
rwrist 17.3183
rhand -7.35432 -49.2119
rfingers 7.12502
rthumb 18.53 -78.3494
lclavicle -2.41523e-014 -1.19271e-014
lhumerus -34.7783 13.3605 79.3631
lradius 33.6602
lwrist -15.3165
lhand -1.21084 -28.9323
lfingers 7.12502
lthumb 24.4301 -0.470016
rfemur 10.0619 10.7623 38.1035
rtibia 12.0207
rfoot -13.7049 -17.2952
rtoes 8.4073
lfemur -35.4233 -28.5681 -6.14508
ltibia 30.8343
lfoot -28.0498 22.5846
ltoes -2.27529
2394
root 9.34599 15.2792 13.4139 0.477986 -0.387368 -5.06222
lowerback 8.41485 1.00143 2.65034
upperback 2.49569 1.58345 1.26823
thorax -2.0962 0.783886 -0.338604
lowerneck -6.21297 -2.14527 -5.28292
upperneck 48.0279 -2.90673 2.11265
head 19.9949 -1.84638 1.54973
rclavicle 7.7526e-015 -4.77083e-015
rhumerus -35.6195 6.4749 -87.7245
rradius 30.358
rwrist 17.7119
rhand -6.80159 -49.4687
rfingers 7.12502
rthumb 19.0616 -78.5546
lclavicle 7.7526e-015 -4.77083e-015
lhumerus -34.579 13.7934 79.1744
lradius 33.4352
lwrist -15.7666
lhand -0.918764 -28.9194
lfingers 7.12502
lthumb 24.7101 -0.49513
rfemur 10.2016 10.3338 37.9902
rtibia 12.0529
rfoot -13.3986 -17.0625
rtoes 6.9531
lfemur -35.7268 -29.4411 -5.68323
ltibia 30.8011
lfoot -28.9065 23.2023
ltoes 1.12745
